<svg id="SvgjsSvg1110" width="256" height="256" xmlns="http://www.w3.org/2000/svg" version="1.1" xmlns:xlink="http://www.w3.org/1999/xlink" xmlns:svgjs="http://svgjs.com/svgjs"><defs id="SvgjsDefs1111"></defs><g id="SvgjsG1112"><svg xmlns="http://www.w3.org/2000/svg" enable-background="new 0 0 100 100" viewBox="0 0 100 100" width="256" height="256"><path fill="#b3fdff" d="M40.147,66.99l6.031,3.716c4.122,2.54,6.278,7.523,4.88,12.159
				c-0.474,1.571-1.305,3.033-2.493,4.221c-3.96,3.96-10.368,3.971-14.313,0.026c-0.23-0.23-0.443-0.47-0.646-0.716
				c-3.578,1.298-7.732,0.528-10.593-2.333c-2.686-2.686-3.534-6.513-2.554-9.932c-1.879-0.379-3.67-1.292-5.124-2.747
				c-2.771-2.771-3.582-6.757-2.451-10.256c-2.493-3.911-2.029-9.168,1.398-12.595c0.99-0.99,2.133-1.733,3.352-2.229
				c4.791-1.95,10.287,0.412,12.549,5.063c1.046,2.151,2.099,5.018,1.373,6.771L40.147,66.99z" class="colorb3fdff svgShape"></path><path fill="#1193ff" d="M41.386,91.665c-3.123,0-6.059-1.215-8.266-3.421c-0.006-0.005-0.01-0.011-0.015-0.016
				c-0.969,0.252-1.964,0.38-2.972,0.38c-3.121,0-6.051-1.211-8.252-3.412c-2.203-2.204-3.417-5.138-3.417-8.261
				c0-0.557,0.039-1.113,0.118-1.663c-1.643-0.576-3.137-1.512-4.38-2.756c-2.202-2.202-3.414-5.133-3.414-8.254
				c0-0.987,0.123-1.964,0.365-2.913c-0.948-1.722-1.446-3.658-1.446-5.644c0-1.334,0.224-2.648,0.666-3.903
				c0.294-0.836,1.209-1.273,2.044-0.98c0.835,0.294,1.273,1.209,0.98,2.044c-0.321,0.912-0.484,1.868-0.484,2.839
				c0,1.625,0.458,3.203,1.324,4.562c0.257,0.404,0.321,0.901,0.173,1.355c-0.275,0.853-0.415,1.741-0.415,2.64
				c0,2.266,0.879,4.391,2.475,5.988c1.18,1.18,2.669,1.978,4.309,2.31c0.438,0.089,0.819,0.356,1.052,0.738
				c0.233,0.382,0.294,0.843,0.172,1.274c-0.22,0.768-0.332,1.564-0.332,2.363c0,2.267,0.88,4.396,2.478,5.994
				c1.596,1.595,3.721,2.473,5.985,2.473c1.003,0,1.988-0.173,2.93-0.514c0.635-0.229,1.349-0.036,1.782,0.487
				c0.17,0.207,0.35,0.409,0.544,0.603c1.599,1.599,3.73,2.48,5.998,2.48c2.282,0,4.429-0.891,6.047-2.507
				c0.955-0.956,1.679-2.183,2.091-3.551c0.237-0.785,0.357-1.6,0.357-2.424c0-3.15-1.741-6.18-4.544-7.907l-6.031-3.716
				c-0.754-0.465-0.988-1.451-0.524-2.205s1.451-0.988,2.205-0.524l6.031,3.715c3.743,2.307,6.068,6.382,6.068,10.636
				c0,1.139-0.165,2.267-0.494,3.351c-0.564,1.872-1.565,3.563-2.893,4.891C47.475,90.441,44.523,91.665,41.386,91.665z
				 M31.555,59.74c-0.204,0-0.411-0.039-0.611-0.122c-0.818-0.338-1.207-1.276-0.869-2.093c0.077-0.188,0.119-0.45,0.119-0.758
				c0-1.105-0.516-2.774-1.452-4.7c-1.433-2.946-4.415-4.849-7.598-4.849c-1,0-1.979,0.192-2.906,0.569
				c-0.563,0.229-1.103,0.521-1.607,0.867c-0.728,0.5-1.727,0.317-2.229-0.414c-0.5-0.729-0.316-1.727,0.414-2.229
				c0.693-0.476,1.437-0.877,2.214-1.194c1.313-0.534,2.697-0.805,4.114-0.805c4.401,0,8.514,2.611,10.48,6.652
				c1.178,2.422,1.775,4.475,1.775,6.102c0,0.734-0.121,1.401-0.361,1.982C32.782,59.367,32.186,59.74,31.555,59.74z" class="color1193ff svgShape"></path><path fill="#b3fdff" d="M87.355,28.939c-0.678-1.096-1.558-1.988-2.557-2.67c2.679-2.312,3.365-6.286,1.445-9.392
				c-1.361-2.201-3.697-3.419-6.105-3.461c-0.228-0.293-0.469-0.578-0.738-0.847c-3.515-3.515-9.214-3.515-12.728,0
				c-0.688,0.687-1.235,1.459-1.654,2.28c-0.028,0.039-0.065,0.07-0.092,0.109c-0.661,0.141-1.311,0.388-1.918,0.764
				c-2.834,1.752-3.71,5.469-1.958,8.303c0.492,0.796,1.144,1.432,1.883,1.904c0.037,1.163,0.364,2.333,1.02,3.393
				c1.514,2.448,4.312,3.611,6.985,3.165c-0.254,1.959,0.136,4.015,1.257,5.826c2.589,4.187,8.082,5.482,12.268,2.893
				C88.649,38.619,89.944,33.126,87.355,28.939z" class="colorb3fdff svgShape"></path><path fill="#1193ff" d="M79.794,44.147c-0.81,0-1.625-0.095-2.433-0.285c-2.734-0.645-5.053-2.315-6.53-4.705
				c-0.933-1.507-1.464-3.229-1.556-4.985c-2.712-0.164-5.212-1.621-6.686-4.006c-0.633-1.024-1.038-2.175-1.192-3.368
				c-0.679-0.542-1.251-1.189-1.71-1.929c-2.214-3.581-1.103-8.296,2.478-10.509c0.537-0.332,1.114-0.595,1.724-0.785
				c0.459-0.784,1.012-1.502,1.649-2.139c4.133-4.134,10.861-4.134,14.995,0c0.134,0.134,0.266,0.274,0.398,0.424
				c2.752,0.28,5.208,1.803,6.676,4.175c1.983,3.207,1.729,7.191-0.474,10.081c0.606,0.591,1.136,1.253,1.586,1.982
				c1.477,2.389,1.936,5.21,1.291,7.944c-0.645,2.735-2.315,5.053-4.704,6.53C83.621,43.611,81.724,44.147,79.794,44.147z
				 M70.937,30.886c0.412,0,0.812,0.159,1.113,0.449c0.365,0.353,0.541,0.857,0.476,1.36c-0.218,1.682,0.138,3.333,1.031,4.777
				c1.026,1.66,2.638,2.823,4.539,3.27c1.901,0.451,3.862,0.131,5.523-0.897c1.66-1.027,2.822-2.639,3.27-4.54
				c0.448-1.901,0.13-3.863-0.898-5.523l0,0c-0.538-0.871-1.244-1.607-2.097-2.188c-0.412-0.28-0.669-0.736-0.698-1.233
				c-0.028-0.498,0.176-0.979,0.553-1.305c2.14-1.847,2.615-4.933,1.129-7.337c-1.025-1.657-2.808-2.667-4.77-2.701
				c-0.485-0.008-0.941-0.236-1.238-0.619c-0.22-0.282-0.412-0.504-0.606-0.698c-2.884-2.884-7.578-2.884-10.462,0
				c-0.546,0.546-1.003,1.176-1.358,1.875c-0.041,0.08-0.088,0.156-0.142,0.228c-0.026,0.036-0.085,0.106-0.125,0.152
				c-0.231,0.29-0.556,0.492-0.921,0.569c-0.509,0.108-0.983,0.296-1.409,0.559c-2.077,1.284-2.722,4.02-1.437,6.097
				c0.348,0.563,0.813,1.032,1.383,1.396c0.445,0.285,0.722,0.772,0.739,1.3c0.029,0.922,0.299,1.822,0.781,2.601
				c1.131,1.829,3.23,2.782,5.359,2.428C70.761,30.893,70.849,30.886,70.937,30.886z" class="color1193ff svgShape"></path><path fill="#ffffff" d="M36.528,71.668c-0.64-0.034-1.273-0.007-1.879,0.074c-1.476-6.151-5.874-6.467-6.818-6.467
				c0.256-1.536,0.074-2.863-0.323-3.988c19.665-14.908,42.273-38.069,42.273-38.069l0.62,0.377
				c1.118,0.674,2.439,0.929,3.719,0.687l0.007,0.991c0.007,0.801,0.195,1.583,0.546,2.297l0.519,1.058
				C75.19,28.627,51.41,51.828,36.528,71.668z" class="colorfff svgShape"></path><path fill="#ffb827" d="M34.647,73.344c-0.731,0-1.382-0.5-1.558-1.229c-1.165-4.861-4.319-5.239-5.259-5.239
				c-0.471,0-0.918-0.207-1.223-0.566c-0.305-0.359-0.436-0.835-0.358-1.3c0.186-1.115,0.1-2.189-0.253-3.19
				c-0.232-0.658-0.012-1.391,0.543-1.812c19.34-14.664,41.868-37.682,42.093-37.912c0.521-0.535,1.342-0.639,1.981-0.249
				l0.62,0.377c0.789,0.476,1.714,0.648,2.586,0.481c0.468-0.09,0.949,0.035,1.317,0.337c0.367,0.302,0.581,0.751,0.585,1.226
				l0.007,0.991c0.004,0.556,0.134,1.096,0.382,1.604l0.519,1.057c0.305,0.622,0.176,1.369-0.32,1.853
				C76.072,30.005,52.445,53.12,37.81,72.63c-0.32,0.427-0.817,0.667-1.366,0.638c-0.534-0.027-1.065-0.007-1.582,0.063
				C34.789,73.34,34.718,73.344,34.647,73.344z M29.552,63.889c1.913,0.458,4.778,1.857,6.247,6.082
				c13.23-17.456,33.158-37.432,37.443-41.676l-0.01-0.02c-0.363-0.741-0.587-1.522-0.671-2.328
				c-0.867-0.077-1.719-0.32-2.513-0.718c-4.301,4.338-23.563,23.525-40.703,36.672C29.484,62.551,29.554,63.215,29.552,63.889z" class="colorffb827 svgShape"></path><path fill="#ffffff" d="M59.319,44.971c4.655,0.195,5.901,5.847,5.901,5.847l0.014,0.323
				c0.074,1.906-0.66,3.692-1.947,4.979c-0.707,0.707-1.57,1.26-2.56,1.603c-2.351,2.351-6.036,2.735-8.819,0.909l-0.101-0.074
				l-0.135-0.054c-1.078-0.458-2.088-1.037-3.011-1.718c-0.58-0.431-1.139-0.909-1.651-1.421c-1.361-1.361-2.452-2.991-3.2-4.803
				l-0.68-0.492c-0.344-0.25-0.667-0.519-0.964-0.816l-0.04-0.04c-1.678-1.677-2.573-4.001-2.432-6.406c0,0,1.273-7.471,7.04-7.902
				c3.678-0.269,5.854,2.163,6.939,3.948L59.319,44.971z" class="colorfff svgShape"></path><path fill="#1193ff" d="M55.745,61.375c-1.636,0-3.279-0.46-4.716-1.403c-0.002-0.001-0.003-0.002-0.004-0.003
				c-1.192-0.51-2.297-1.143-3.315-1.893c-0.665-0.495-1.28-1.026-1.833-1.58c-1.417-1.416-2.548-3.061-3.364-4.896l-0.322-0.232
				c-0.436-0.317-0.813-0.637-1.157-0.981c-2.049-2.048-3.106-4.831-2.939-7.674c0.003-0.059,0.009-0.118,0.02-0.176
				c0.061-0.355,1.563-8.712,8.5-9.231c3.439-0.26,6.428,1.422,8.428,4.714c0.46,0.757,0.219,1.742-0.537,2.201
				c-0.756,0.461-1.742,0.219-2.201-0.537c-0.951-1.564-2.671-3.395-5.452-3.181c-4.187,0.313-5.418,5.768-5.563,6.493
				c-0.084,1.897,0.631,3.744,1.97,5.083c0.266,0.264,0.517,0.479,0.813,0.693l0.676,0.489c0.242,0.174,0.429,0.413,0.542,0.688
				c0.667,1.614,1.626,3.055,2.852,4.281c0.444,0.445,0.94,0.872,1.475,1.269c0.824,0.608,1.729,1.124,2.681,1.528l0.105,0.041
				c0.125,0.051,0.244,0.117,0.353,0.198l0.064,0.047c2.129,1.375,4.973,1.075,6.773-0.725c0.172-0.171,0.379-0.301,0.608-0.381
				c0.74-0.257,1.398-0.668,1.952-1.222c0.994-0.995,1.533-2.373,1.478-3.783l-0.007-0.16c-0.19-0.722-1.296-4.343-4.374-4.472
				c-0.884-0.037-1.571-0.784-1.534-1.668c0.038-0.884,0.746-1.559,1.669-1.534c5.82,0.244,7.338,6.823,7.399,7.103
				c0.02,0.092,0.032,0.186,0.036,0.279l0.013,0.323c0.09,2.302-0.79,4.552-2.414,6.178c-0.814,0.813-1.763,1.435-2.825,1.856
				C59.968,60.604,57.862,61.375,55.745,61.375z" class="color1193ff svgShape"></path><path fill="#ffffff" d="M48.23,43.866c0.181,1.139,0.175,2.614-0.209,4.547c0,0,2.014,0.465,3.719,1.806l1.051,1.886
				c0.121-0.135,0.243-0.27,0.357-0.398c0.122-0.135,0.243-0.27,0.364-0.391L48.23,43.866z" class="colorfff svgShape"></path><path fill="#1193ff" d="M52.791,53.707c-0.059,0-0.118-0.003-0.178-0.01c-0.515-0.057-0.971-0.36-1.223-0.812l-0.885-1.59
				c-1.331-0.953-2.828-1.317-2.845-1.321c-0.844-0.195-1.379-1.025-1.211-1.874c0.306-1.544,0.373-2.884,0.199-3.983
				c-0.14-0.873,0.456-1.695,1.33-1.834c0.865-0.144,1.694,0.455,1.834,1.331c0.177,1.105,0.179,2.347,0.009,3.706
				c0.835,0.331,1.913,0.856,2.908,1.638c0.167,0.132,0.306,0.294,0.409,0.48l0.161,0.29c0.476-0.065,0.977,0.089,1.344,0.455
				c0.626,0.626,0.626,1.64,0,2.266c-0.101,0.102-0.202,0.215-0.304,0.328l-0.357,0.398C53.678,53.515,53.243,53.707,52.791,53.707z
				" class="color1193ff svgShape"></path><path fill="#ffffff" d="M67.573,21.523c0,0,0.579,0.835,2.208,1.691L67.573,21.523z" class="colorfff svgShape"></path><path fill="#1193ff" d="M69.779,24.817c-0.251,0-0.507-0.059-0.744-0.184c-1.882-0.989-2.645-2.004-2.78-2.197
				c-0.504-0.728-0.322-1.726,0.405-2.23c0.72-0.497,1.7-0.327,2.21,0.376c0.038,0.048,0.505,0.609,1.656,1.213
				c0.784,0.412,1.085,1.38,0.673,2.165C70.913,24.506,70.355,24.817,69.779,24.817z" class="color1193ff svgShape"></path><path fill="#ffffff" d="M76.755,30.86c-0.527-0.527-1.226-1.546-1.565-2.237L76.755,30.86z" class="colorfff svgShape"></path><path fill="#1193ff" d="M76.755,32.463c-0.41,0-0.82-0.157-1.134-0.47c-0.717-0.718-1.499-1.908-1.87-2.664
				c-0.39-0.794-0.063-1.754,0.731-2.145c0.794-0.393,1.755-0.063,2.145,0.731c0.278,0.566,0.879,1.429,1.261,1.811
				c0.626,0.626,0.626,1.64,0,2.266C77.575,32.306,77.165,32.463,76.755,32.463z" class="color1193ff svgShape"></path><path fill="#ffffff" d="M58.127,52.239c-0.301-0.215-1.967-1.726-4.617-0.927L58.127,52.239z" class="colorfff svgShape"></path><path fill="#1193ff" d="M58.105,53.837c-0.315,0-0.632-0.095-0.911-0.295l-0.134-0.101
				c-0.611-0.471-1.592-1.048-3.088-0.595c-0.846,0.254-1.741-0.224-1.996-1.072c-0.255-0.848,0.224-1.741,1.072-1.997
				c1.482-0.445,3.721-0.614,5.973,1.129c0.719,0.515,0.905,1.532,0.389,2.251C59.095,53.598,58.604,53.837,58.105,53.837z" class="color1193ff svgShape"></path><path fill="#ffffff" d="M72.418,16.678c0,0,2.924-1.319,4.701,2.064L72.418,16.678z" class="colorfff svgShape"></path><path fill="#1193ff" d="M77.12 20.345c-.577 0-1.134-.312-1.42-.857-1.045-1.988-2.467-1.42-2.624-1.349-.805.363-1.755.006-2.12-.802-.364-.807-.005-1.756.802-2.12 1.729-.78 4.96-.682 6.779 2.779.411.784.11 1.753-.673 2.164C77.627 20.286 77.372 20.345 77.12 20.345zM79.583 38.864c-.752 0-1.424-.533-1.572-1.299-.167-.87.401-1.71 1.27-1.877 1.113-.215 2.506-.69 2.828-1.74.255-.828-.202-1.788-.591-2.176-.625-.626-.625-1.641 0-2.267.627-.625 1.641-.625 2.267 0 1.12 1.12 2.032 3.283 1.388 5.382-.435 1.42-1.706 3.257-5.285 3.947C79.786 38.854 79.684 38.864 79.583 38.864zM26.301 70.876c-.275 0-.553-.07-.807-.219-.764-.448-1.021-1.429-.574-2.193 3.893-6.653-1.352-10.051-1.963-10.416-.757-.452-1.009-1.433-.561-2.193.449-.759 1.425-1.015 2.184-.571.147.086 3.614 2.149 4.674 6.193.712 2.716.185 5.611-1.566 8.605C27.388 70.592 26.852 70.876 26.301 70.876zM41.041 75.229c-.447 0-.89-.185-1.207-.548-2.522-2.884-8.591-.476-8.653-.452-.813.342-1.753-.046-2.095-.862-.339-.816.044-1.753.859-2.094.333-.14 8.218-3.371 12.302 1.299.583.666.515 1.679-.152 2.262C41.791 75.098 41.415 75.229 41.041 75.229zM41.745 83.699c-.634 0-1.235-.38-1.487-1.004-1.036-2.567-3.681-3.692-3.708-3.703-.814-.338-1.206-1.273-.872-2.088.334-.816 1.262-1.212 2.078-.881.16.064 3.917 1.618 5.473 5.473.331.821-.066 1.755-.887 2.086C42.148 83.661 41.945 83.699 41.745 83.699z" class="color1193ff svgShape"></path><path fill="#1193ff" d="M21.173 65.744c-.06 0-.121-.003-.182-.01-.88-.099-1.512-.893-1.413-1.772.368-3.255-2.815-6.234-2.848-6.264-.649-.599-.692-1.612-.096-2.263.596-.65 1.606-.698 2.259-.102.18.165 4.422 4.096 3.869 8.989C22.67 65.14 21.978 65.744 21.173 65.744zM31.566 80.402c-.27 0-.545-.068-.796-.212-1.145-.658-3.286-.252-4.142.045-.838.293-1.751-.151-2.041-.986-.291-.837.15-1.75.986-2.041.411-.143 4.085-1.35 6.791.201.768.441 1.033 1.42.593 2.188C32.662 80.113 32.122 80.402 31.566 80.402zM22.025 52.049c-.112 0-.217-.008-.321-.032-.096-.016-.2-.048-.296-.088-.096-.041-.192-.089-.272-.145-.088-.064-.176-.128-.248-.2-.305-.305-.473-.705-.473-1.138 0-.424.177-.833.473-1.13.601-.601 1.667-.601 2.268 0 .296.296.472.706.472 1.13 0 .425-.168.833-.472 1.138C22.85 51.88 22.45 52.049 22.025 52.049zM14.774 67.273c-.433 0-.833-.168-1.138-.472-.304-.297-.472-.697-.472-1.13 0-.104.015-.208.031-.312.024-.104.056-.208.096-.305.041-.096.088-.185.145-.272.056-.089.128-.168.2-.249.072-.072.152-.136.24-.193.089-.064.184-.112.28-.151.096-.04.2-.072.297-.089.521-.104 1.074.064 1.451.433.072.08.136.16.2.249.056.088.104.176.144.272.04.096.072.2.088.305.024.104.032.208.032.312 0 .104-.008.208-.024.313-.024.104-.056.2-.096.296-.04.096-.089.193-.144.281-.056.08-.128.168-.2.24C15.598 67.105 15.198 67.273 14.774 67.273zM37.643 89.172c-.425 0-.826-.168-1.13-.473-.304-.296-.472-.697-.472-1.13 0-.104.016-.208.032-.312.024-.104.056-.2.096-.296.04-.096.088-.193.144-.281.057-.089.129-.169.2-.241.072-.08.152-.144.24-.2.089-.056.185-.112.28-.152.096-.04.193-.064.296-.089.209-.04.425-.04.625 0 .104.024.208.048.304.089.096.04.185.096.272.152.089.056.168.12.241.2.08.072.144.152.201.241.063.088.112.184.152.281.04.096.071.192.088.296.024.104.033.208.033.312 0 .433-.168.834-.473 1.13C38.476 89.004 38.075 89.172 37.643 89.172zM45.302 80.143c-.216 0-.425-.041-.616-.12-.193-.08-.368-.201-.521-.353-.072-.073-.144-.152-.201-.241-.056-.087-.104-.176-.144-.272-.04-.096-.072-.2-.096-.296-.016-.104-.032-.216-.032-.32 0-.104.016-.209.032-.313.024-.104.056-.201.096-.297.04-.095.087-.191.144-.28.064-.089.129-.168.201-.24.071-.072.16-.144.249-.2.08-.056.176-.104.272-.144.096-.041.2-.073.296-.096.208-.041.424-.041.633 0 .096.024.201.055.296.096.096.04.193.088.281.144.088.057.168.129.24.2.072.072.143.152.2.24.056.089.104.185.144.28.041.096.072.192.096.297.017.104.032.209.032.313 0 .104-.015.216-.032.32-.024.096-.056.2-.096.296-.033.096-.088.185-.144.272-.057.089-.128.168-.2.241-.153.152-.329.273-.521.353C45.72 80.102 45.511 80.143 45.302 80.143zM65.239 74.257c-.431 0-.859-.172-1.175-.513-6.009-6.481-10.524-3.665-10.714-3.541-.734.478-1.727.282-2.215-.448-.487-.73-.306-1.71.418-2.206.068-.047 6.902-4.568 14.861 4.017.602.649.563 1.663-.086 2.265C66.02 74.116 65.629 74.257 65.239 74.257zM31.396 45.514c-.173 0-.35-.029-.523-.089-.837-.289-1.281-1.201-.992-2.038 1.92-5.567 1.231-9.948 1.224-9.992-.144-.873.448-1.698 1.321-1.842.878-.144 1.699.448 1.842 1.321.034.211.824 5.234-1.357 11.559C32.682 45.097 32.061 45.514 31.396 45.514zM51.352 31.183c-.216 0-.425-.04-.617-.12-.192-.08-.368-.2-.521-.353-.305-.297-.465-.705-.465-1.13 0-.424.168-.833.465-1.13.377-.377.93-.545 1.451-.441.096.017.2.048.296.088.095.04.191.089.28.152.08.057.168.121.24.201.296.296.472.706.472 1.13 0 .425-.168.825-.472 1.13C52.178 31.014 51.777 31.183 51.352 31.183zM44.822 30.221c-.425 0-.826-.16-1.13-.464-.152-.153-.264-.329-.353-.521-.08-.192-.12-.4-.12-.609 0-.113.015-.217.032-.321.024-.096.056-.2.096-.297.04-.096.088-.192.144-.273.056-.088.128-.176.2-.247.072-.073.152-.136.24-.201.089-.056.185-.104.281-.145.095-.04.191-.072.296-.096.521-.104 1.074.073 1.45.442.297.297.473.713.473 1.137 0 .424-.168.825-.473 1.13C45.655 30.061 45.255 30.221 44.822 30.221zM67.571 49.083c-.104 0-.208-.016-.312-.032-.104-.024-.2-.048-.296-.088-.096-.04-.192-.096-.281-.152-.08-.056-.168-.128-.24-.2-.304-.297-.472-.697-.472-1.13 0-.104.008-.208.032-.312.024-.104.048-.208.089-.304.048-.096.096-.185.152-.272.056-.089.128-.168.2-.249.072-.072.153-.136.24-.192.089-.064.185-.113.281-.153.096-.04.193-.072.296-.088.208-.048.424-.048.624 0 .105.016.209.048.305.088.096.04.184.089.272.153.088.056.168.12.248.192.072.08.136.16.193.249.064.088.112.176.153.272.04.096.072.2.088.304.024.104.032.208.032.312 0 .105-.008.209-.032.313-.015.104-.048.208-.088.296-.041.096-.088.192-.145.281-.064.089-.129.168-.201.24C68.404 48.915 68.003 49.083 67.571 49.083zM68.676 56.111c-.424 0-.833-.168-1.13-.473-.305-.296-.473-.705-.473-1.13 0-.425.168-.833.473-1.13.368-.377.922-.545 1.443-.441.104.025.2.048.305.089.096.04.184.096.272.152.088.057.168.12.248.201.072.072.136.152.192.24.064.089.112.177.152.281.04.096.072.192.088.296.024.104.032.208.032.312 0 .425-.168.833-.465 1.13-.152.152-.329.272-.52.353C69.093 56.071 68.893 56.111 68.676 56.111zM57.097 16.054c-.416 0-.833-.176-1.129-.473-.296-.297-.473-.705-.473-1.13 0-.425.177-.841.473-1.13.592-.601 1.667-.601 2.268 0 .295.296.464.705.464 1.13 0 .425-.168.833-.464 1.13C57.931 15.878 57.522 16.054 57.097 16.054zM87.242 13.065c-.104 0-.208-.016-.312-.032-.104-.024-.2-.056-.305-.096-.096-.04-.184-.089-.272-.145-.089-.056-.168-.128-.241-.2-.305-.297-.472-.713-.472-1.138 0-.416.168-.833.472-1.13.593-.593 1.667-.593 2.26 0 .304.297.472.713.472 1.13 0 .425-.168.841-.472 1.138-.072.072-.152.145-.24.2-.089.056-.185.104-.28.145-.096.04-.192.072-.296.096C87.451 13.049 87.347 13.065 87.242 13.065zM85.607 50.158c-.104 0-.216-.008-.32-.032-.096-.017-.2-.048-.296-.089-.096-.04-.185-.088-.272-.144-.088-.064-.168-.128-.249-.208-.297-.296-.465-.697-.465-1.129 0-.425.168-.834.465-1.13.601-.601 1.674-.601 2.268 0 .296.296.472.705.472 1.13 0 .432-.168.833-.472 1.129-.072.08-.161.145-.24.208-.089.056-.185.104-.28.144-.096.04-.192.072-.297.089C85.816 50.149 85.712 50.158 85.607 50.158zM57.097 78.508c-.424 0-.824-.168-1.129-.465-.305-.304-.473-.705-.473-1.137 0-.104.017-.209.032-.313.024-.104.056-.201.096-.297.04-.095.089-.191.145-.28.056-.089.128-.168.2-.24.592-.601 1.667-.601 2.268 0 .072.072.136.152.2.24.056.089.104.185.144.28.04.096.072.193.087.297.024.104.032.209.032.313 0 .433-.168.833-.464 1.137-.081.072-.161.136-.249.201-.089.056-.176.104-.272.144-.096.04-.2.072-.296.089C57.314 78.499 57.202 78.508 57.097 78.508zM66.922 82.475c-.425 0-.833-.169-1.137-.465-.297-.305-.465-.706-.465-1.137 0-.105.008-.209.033-.313.015-.104.048-.201.087-.297.04-.096.089-.191.153-.28.056-.089.119-.168.192-.24.376-.377.928-.545 1.45-.441.104.024.2.056.297.096.096.032.192.089.28.145.089.056.168.128.242.2.295.297.472.705.472 1.13 0 .432-.168.832-.472 1.137-.153.144-.329.264-.521.344C67.338 82.433 67.13 82.475 66.922 82.475zM23.772 40.598c-.216 0-.424-.04-.617-.12-.193-.081-.368-.193-.521-.345-.296-.305-.465-.705-.465-1.13 0-.425.168-.842.465-1.139.377-.368.93-.545 1.451-.441.104.024.2.057.297.096.096.04.192.088.281.144.088.064.168.128.24.2.304.296.472.714.472 1.139 0 .425-.168.825-.472 1.13-.152.152-.32.264-.521.345C24.188 40.558 23.981 40.598 23.772 40.598zM23.772 29.524c-.216 0-.416-.041-.617-.128-.193-.081-.368-.193-.521-.345-.072-.072-.136-.16-.2-.24-.056-.088-.104-.184-.144-.281-.04-.096-.072-.193-.088-.297-.024-.104-.032-.208-.032-.312 0-.425.168-.842.465-1.137.377-.37.93-.546 1.451-.433.104.015.2.048.297.087.096.04.192.089.281.145.088.064.168.128.24.201.304.295.472.713.472 1.137 0 .104-.008.208-.032.312-.016.104-.048.2-.088.297-.041.096-.089.192-.152.281-.057.08-.12.168-.2.24-.152.153-.32.264-.521.345C24.188 29.484 23.981 29.524 23.772 29.524z" class="color1193ff svgShape"></path><path fill="#ffb827" d="M32.115,67.272c-0.449,0-0.895-0.188-1.212-0.553c-0.58-0.669-0.507-1.682,0.162-2.261l7.337-6.354
			c0.67-0.58,1.681-0.506,2.261,0.162c0.58,0.669,0.507,1.682-0.162,2.26l-7.337,6.354C32.86,67.144,32.486,67.272,32.115,67.272z" class="colorffb827 svgShape"></path><path fill="#ffffff" d="M34.649,71.742c-1.476-6.151-5.874-6.467-6.818-6.467L34.649,71.742z" class="colorfff svgShape"></path><path fill="#1193ff" d="M34.647,73.344c-0.724,0-1.381-0.494-1.558-1.229c-1.165-4.861-4.319-5.239-5.259-5.239
			c-0.885,0-1.602-0.718-1.602-1.603c0-0.885,0.717-1.603,1.602-1.603c1.09,0,6.619,0.371,8.376,7.696
			c0.206,0.861-0.324,1.726-1.185,1.933C34.896,73.331,34.771,73.344,34.647,73.344z" class="color1193ff svgShape"></path><path fill="#ffffff" d="M69.781,23.218l0.62,0.377c1.118,0.674,2.439,0.929,3.719,0.687l0.007,0.991
			c0.007,0.801,0.195,1.583,0.546,2.297l0.519,1.058L69.781,23.218z" class="colorfff svgShape"></path><path fill="#1193ff" d="M75.192,30.229c-0.592,0.001-1.162-0.329-1.44-0.897l-0.519-1.057
			c-0.363-0.741-0.587-1.522-0.671-2.328c-1.042-0.092-2.064-0.424-2.988-0.981l-0.627-0.381c-0.756-0.46-0.996-1.446-0.535-2.202
			c0.459-0.756,1.445-0.997,2.202-0.535l0.62,0.377c0.789,0.476,1.714,0.648,2.586,0.481c0.468-0.09,0.949,0.035,1.317,0.337
			c0.367,0.302,0.581,0.751,0.585,1.226l0.007,0.991c0.004,0.556,0.134,1.096,0.382,1.604l0.519,1.057
			c0.389,0.794,0.062,1.754-0.734,2.145C75.669,30.177,75.428,30.229,75.192,30.229z" class="color1193ff svgShape"></path><g><path fill="#ffb827" d="M48.23 45.468c-.43 0-.858-.172-1.174-.511-.603-.649-.566-1.662.082-2.265l9.897-9.205c.65-.6 1.662-.566 2.265.082.602.649.566 1.662-.082 2.265l-9.897 9.205C49.013 45.326 48.621 45.468 48.23 45.468zM53.147 53.31c-.39 0-.782-.141-1.091-.428-.648-.603-.685-1.616-.084-2.265l11.189-12.05c.603-.648 1.617-.685 2.265-.084.648.602.685 1.617.084 2.265l-11.189 12.05C54.006 53.138 53.577 53.31 53.147 53.31z" class="colorffb827 svgShape"></path></g><g><path fill="#ffffff" d="M46.346,40.457c0,0,2.967,1.505,1.677,7.955c0,0,5.829,1.357,6.097,6.097L46.346,40.457z" class="colorfff svgShape"></path><path fill="#1193ff" d="M54.118,56.112c-0.844,0-1.55-0.66-1.599-1.513c-0.195-3.467-4.818-4.616-4.865-4.627
			c-0.838-0.201-1.372-1.029-1.203-1.874c0.996-4.984-0.873-6.233-0.892-6.245l0.786-1.396l0.724-1.429
			c0.388,0.196,3.548,2.004,2.754,8.292c2.071,0.822,5.656,2.849,5.895,7.098c0.05,0.883-0.627,1.64-1.51,1.69
			C54.179,56.111,54.148,56.112,54.118,56.112z" class="color1193ff svgShape"></path></g></svg></g></svg>