<?xml version="1.0" encoding="UTF-8"?> <svg xmlns="http://www.w3.org/2000/svg" xmlns:xlink="http://www.w3.org/1999/xlink" xmlns:svgjs="http://svgjs.com/svgjs" id="SvgjsSvg1148" width="512" height="512" version="1.1"><defs id="SvgjsDefs1149"></defs><g id="SvgjsG1150"><svg xmlns="http://www.w3.org/2000/svg" viewBox="0 0 100 100" width="512" height="512"><path d="M87.421,51.02c0-3.855-2.472-7.226-6.07-8.542c0.737-1.322,1.12-2.776,1.12-4.281c0-4.849-3.892-8.829-8.791-9.125 c-0.67-1.689-1.947-3.092-3.587-3.942c0.014-0.164,0.022-0.326,0.022-0.487c0-3.44-2.866-6.239-6.389-6.239 c-1.586,0-3.104,0.583-4.265,1.604c-1.619-1.648-3.866-2.602-6.24-2.602c-1.296,0-2.557,0.279-3.71,0.818 c-1.384-3.068-4.478-5.036-7.995-5.036c-3.815,0.048-7.288,2.764-8.258,6.457c-0.237,0.908-0.316,1.829-0.235,2.754 c-0.736,0.013-1.47,0.153-2.173,0.421c-2.149,0.815-3.691,2.811-3.926,5.085c-0.122,1.183,0.093,2.314,0.626,3.333 c-3.657,2.008-5.593,6.198-4.57,10.278c0.073,0.289,0.16,0.577,0.263,0.861c-1.687,1.07-2.743,2.621-2.824,4.221 c-0.064,1.23,0.41,3.021,3.018,4.576c0.879,0.525,2.082,0.601,2.66,0.55c-0.088,0.451-0.191,1.077-0.246,1.752 c-2.01,1.212-3.232,3.318-3.232,5.642c0,0.33,0.026,0.662,0.077,0.991c-1.823,1.236-2.925,3.261-2.925,5.465 c0,3.384,2.6,6.18,5.951,6.601c-1.663,1.892-3.401,3.804-5.207,5.788c-1.605,1.765-3.265,3.589-4.969,5.507l-2.967,3.337l4.196-1.53 c6.857-2.5,16.21-6.467,24.546-11.892c1.738,4.389,6.089,7.45,11.038,7.45c5.119,0,9.57-3.18,11.2-7.863 c1.073,0.214,2.153,0.192,3.211-0.063c0.99,2.204,3.257,3.706,5.789,3.706c3.484,0,6.318-2.767,6.318-6.169 c0-0.622-0.099-1.233-0.295-1.827c2.6-1.207,4.328-3.787,4.328-6.649c0-0.972-0.199-1.932-0.585-2.828 C85.419,57.599,87.421,54.476,87.421,51.02z M80.386,57.518l-1.391,0.468l0.812,1.223c0.555,0.836,0.849,1.793,0.849,2.765 c0,2.277-1.6,4.299-3.89,4.92l-1.42,0.383l0.74,1.272c0.357,0.613,0.537,1.253,0.537,1.902c0,2.158-1.822,3.914-4.063,3.914 c-1.908,0-3.578-1.306-3.973-3.104l-0.285-1.306l-1.24,0.502c-1.272,0.515-2.586,0.548-3.886,0.075l-1.186-0.431l-0.295,1.228 c-1.025,4.271-4.865,7.255-9.336,7.255c-4.186,0-7.843-2.695-9.112-6.489c0.876-0.607,1.742-1.224,2.583-1.864l0.897-0.683 l-1.365-1.795l-0.733,0.557l-0.165,0.125c-0.561,0.427-1.133,0.844-1.711,1.256c-0.928,0.661-1.873,1.304-2.835,1.926 c-0.661,0.427-1.33,0.844-2.002,1.253c-5.905,3.594-12.176,6.475-17.566,8.631c0.618-0.683,1.23-1.354,1.833-2.018 c2.411-2.649,4.704-5.173,6.861-7.694c0.916-1.071,1.81-2.141,2.674-3.22c0.235-0.294,0.466-0.59,0.697-0.885 c2.506-3.201,4.771-6.505,6.748-10.149c0.126-0.232,0.255-0.46,0.378-0.695l0.525-0.999l-1.996-1.049l-0.524,0.998 c-2.702,5.136-6.022,9.595-9.803,14.053c-0.369,0.091-0.753,0.141-1.147,0.141c-2.52,0-4.569-1.976-4.569-4.407 c0-1.644,0.941-3.14,2.457-3.905l0.843-0.425l-0.27-0.904c-0.12-0.404-0.181-0.816-0.181-1.222c0-1.672,0.98-3.18,2.555-3.933 l0.626-0.3l0.015-0.692c0.013-0.592,0.098-1.315,0.239-2.035c0.129-0.658-0.043-1.33-0.469-1.847 c-0.417-0.504-1.031-0.794-1.684-0.794c-0.011-0.002-0.022,0-0.032,0c-0.787,0-1.317-0.149-1.534-0.278 c-0.907-0.541-1.978-1.418-1.921-2.524c0.052-1.017,1.05-2.149,2.486-2.815l1.053-0.49l-0.52-1.038 c-0.228-0.452-0.403-0.924-0.523-1.401c-0.855-3.418,1.059-6.946,4.456-8.204l1.527-0.566l-1.068-1.23 c-0.716-0.826-1.024-1.778-0.914-2.831c0.146-1.413,1.143-2.703,2.482-3.211c0.798-0.302,1.655-0.356,2.481-0.152l1.885,0.466 l-0.529-1.867c-0.301-1.064-0.317-2.126-0.048-3.157c0.718-2.731,3.285-4.738,6.106-4.774c2.989-0.007,5.531,1.897,6.263,4.708 l0.404,1.554l1.324-0.907c1.085-0.743,2.358-1.136,3.684-1.136c2.112,0,4.085,1.011,5.279,2.704l0.911,1.291l0.924-1.281 c0.777-1.075,2.044-1.716,3.39-1.716c2.279,0,4.134,1.787,4.134,3.984c0,0.276-0.038,0.57-0.117,0.898l-0.234,0.971l0.936,0.349 c1.652,0.618,2.898,1.974,3.333,3.63l0.227,0.867l0.895-0.025l0.195-0.023c3.926,0,7.121,3.089,7.121,6.887 c0,1.528-0.538,2.995-1.555,4.241l-1.214,1.488l1.89,0.336c3.378,0.6,5.83,3.443,5.83,6.758 C85.166,53.943,83.245,56.553,80.386,57.518z M51.152,65.679l-0.625,0.938l-1.876-1.251l0.625-0.938 c1.463-2.194,3.096-3.088,4.265-3.447c-0.861-2.973-0.917-6.768,1.166-9.708c-1.555-0.943-2.858-2.292-3.743-3.885 c-1.89,0.568-3.902,1.018-5.977,0.973c-2.763-0.068-5.245-1.107-6.813-2.848l-0.754-0.838l1.676-1.508l0.754,0.838 c1.155,1.283,3.048,2.049,5.193,2.102c2.11,0.054,4.198-0.524,6.162-1.154l0.975-0.313l0.405,0.939 c0.829,1.922,2.409,3.488,4.335,4.297l1.555,0.653l-1.197,1.187c-2.696,2.673-2.327,6.915-1.191,9.734l0.679,1.686l-1.813-0.141 C54.9,62.996,52.975,62.943,51.152,65.679z M80.656,49.893h2.255v1.127c0,1.954-1.303,3.707-3.245,4.361l-1.068,0.361l-0.722-2.137 l1.069-0.36c1.023-0.346,1.71-1.239,1.71-2.224V49.893z M76.146,60.847h2.255v1.127c0,1.47-1.153,2.452-2.224,2.742l-1.089,0.295 l-0.589-2.177l1.088-0.294c0.217-0.059,0.559-0.264,0.559-0.566V60.847z M62.116,65.35l3.659,1.328l-0.769,2.12l-3.659-1.328 c-0.245-0.089-0.51-0.072-0.742,0.054c-0.233,0.124-0.394,0.333-0.455,0.589l-0.646,2.688c-0.782,3.255-3.72,5.527-7.144,5.527 h-1.127v-2.255h1.127c2.377,0,4.413-1.562,4.951-3.798l0.646-2.689c0.211-0.876,0.786-1.623,1.58-2.049 C60.33,65.11,61.268,65.04,62.116,65.35z M31.326,47.449c1.284,1.559,1.799,3.593,1.412,5.577c-0.091,0.465-0.15,0.939-0.157,1.27 l-0.025,1.126l-2.254-0.049l0.024-1.127c0.011-0.464,0.081-1.05,0.198-1.651c0.257-1.321-0.085-2.674-0.939-3.711 c-0.552-0.67-1.276-1.159-2.097-1.416l-1.076-0.336l0.673-2.153l1.077,0.337C29.401,45.702,30.495,46.44,31.326,47.449z M27.355,40.423c-0.576-2.301,0.735-4.684,3.052-5.541l1.056-0.392l0.783,2.115l-1.058,0.391c-1.235,0.458-1.944,1.696-1.647,2.879 c0.04,0.157,0.1,0.318,0.179,0.476l0.507,1.008l-2.015,1.012l-0.507-1.008C27.552,41.057,27.435,40.741,27.355,40.423z M51.154,25.156l-1.273-1.861l0.931-0.637c0.494-0.338,1.313-0.741,2.409-0.741c1.379,0,2.665,0.654,3.438,1.75l0.65,0.922 l-1.843,1.299l-0.65-0.921c-0.35-0.497-0.947-0.794-1.594-0.794c-0.52,0-0.905,0.188-1.136,0.347L51.154,25.156z M39.516,22.452 l-2.181-0.574l0.287-1.091c0.465-1.766,2.127-3.064,3.952-3.087l0.029,2.255c-0.804,0.009-1.596,0.628-1.8,1.407L39.516,22.452z M73.33,35.83l-0.036,0.003l-2.473,0.07c-1.36-0.016-2.507-0.839-2.846-2.131l-0.56-2.136c-0.063-0.236-0.273-0.447-0.549-0.551 l-1.056-0.396l0.79-2.111l1.056,0.395c0.967,0.362,1.692,1.144,1.94,2.091l0.559,2.134c0.072,0.273,0.31,0.488,0.602,0.449 l2.621-0.075c2.569,0.141,4.581,2.172,4.581,4.623v1.127h-2.254v-1.127C75.706,36.966,74.669,35.939,73.33,35.83z M37.637,38.096 c-1.963-4.451,0.18-9.374,0.271-9.58l0.458-1.031l2.061,0.916L39.97,29.43c-0.019,0.042-1.829,4.242-0.265,7.769 c0.861,1.941,2.621,3.366,5.228,4.236l1.069,0.355l-0.712,2.14l-1.07-0.357C40.978,42.493,38.763,40.651,37.637,38.096z" fill="#000000" class="color000 svgShape"></path></svg></g></svg> 